<svg xmlns="http://www.w3.org/2000/svg" width="64" height="64" viewBox="0 0 64 64" role="img" aria-label="Tina Aires">
  <rect x="0" y="0" width="64" height="64" rx="14" fill="#0F3B3A"/>
  <g fill="#F7F3EC">
    <path d="M10 16.5 h21.4 v6.6 h-1.85 c-0.7 -2.85 -1.55 -4.0 -3.8 -4.0 h-2.85 v24.4 c0 2.55 0.5 3.35 3.35 3.55 v2.3 h-11.8 v-2.3 c2.85 -0.2 3.35 -1.0 3.35 -3.55 v-24.4 h-2.85 c-2.25 0 -3.1 1.15 -3.8 4.0 h-1.85 z"/>
    <path d="M44.3 16.5 h3.55 l9.2 26.4 c0.8 2.25 1.4 2.95 2.95 3.15 v2.2 h-11.3 v-2.2 c2.45 -0.1 3.1 -0.7 2.55 -2.5 l-1.65 -4.95 h-9.1 l-1.45 4.45 c-0.7 2.15 -0.1 2.9 2.6 3.0 v2.2 h-9.0 v-2.2 c1.65 -0.2 2.35 -0.95 3.1 -3.2 z M42.65 25.3 l-3.55 10.7 h7.2 z"/>
  </g>
</svg>
